<?xml version="1.0" encoding="UTF-8"?>
<svg version="1.1" xmlns="http://www.w3.org/2000/svg" width="1536" height="1024">
<path d="M0 0 C0.77244694 0.00119778 1.54489388 0.00239555 2.34074831 0.00362962 C3.15757704 0.0009778 3.97440576 -0.00167403 4.81598687 -0.00440621 C7.58866262 -0.01214478 10.36129442 -0.01266011 13.13398027 -0.01325613 C15.12768412 -0.01726776 17.12138715 -0.02170547 19.11508918 -0.02653569 C24.62153789 -0.0385405 30.12797783 -0.04415865 35.63443708 -0.04871684 C41.56232009 -0.05465818 47.49019252 -0.06627164 53.41806841 -0.07700735 C67.07021543 -0.10040374 80.72236666 -0.11494385 94.37452721 -0.12723677 C99.09646699 -0.13148928 103.81840638 -0.13605495 108.54034567 -0.14082009 C133.63130075 -0.16607826 158.72225646 -0.18813291 183.81322145 -0.20054823 C189.62906443 -0.20346971 195.44490737 -0.20643719 201.26075029 -0.20945364 C201.98331748 -0.20982455 202.70588466 -0.21019546 203.45034781 -0.21057761 C226.88362841 -0.22273617 250.31683394 -0.25368397 273.75007927 -0.29537517 C297.8282695 -0.33813586 321.90642008 -0.36478583 345.98464932 -0.37002295 C349.38353981 -0.37076343 352.78243024 -0.37167412 356.18132067 -0.37268072 C356.85028188 -0.37287134 357.5192431 -0.37306195 358.20847587 -0.37325834 C368.98703169 -0.37677591 379.76549371 -0.39709222 390.54401505 -0.42347736 C401.37305411 -0.44958696 412.20197928 -0.45694907 423.03104493 -0.44637607 C428.90100768 -0.44117202 434.77067139 -0.44418931 440.64059114 -0.46884161 C446.0096758 -0.49120308 451.37824435 -0.49069671 456.74733725 -0.47163774 C458.69422761 -0.46881925 460.64115199 -0.47453782 462.58798727 -0.48945068 C465.2264966 -0.50843302 467.86314208 -0.49685298 470.50160646 -0.47738844 C471.26468874 -0.49023766 472.02777102 -0.50308688 472.813977 -0.51632547 C476.72788372 -0.45249992 478.51358798 0.01726603 481.64388061 2.44211131 C484.34994763 6.04116784 484.37686037 9.09880464 484.31983232 13.43165964 C484.32859392 14.25341181 484.33735552 15.07516397 484.34638262 15.92181772 C484.36834006 18.63071798 484.35383761 21.33797797 484.33692217 24.04689401 C484.34029137 25.93349387 484.34514486 27.82009161 484.35141802 29.70668405 C484.35878437 33.65770026 484.34809155 37.60815069 484.32471514 41.55910105 C484.29622741 46.62025098 484.31263267 51.68007524 484.34257746 56.74117655 C484.36065689 60.63604567 484.35488946 64.53060119 484.3419385 68.42547983 C484.33860626 70.29137702 484.34268514 72.15730281 484.35433626 74.0231666 C484.36705586 76.63275281 484.34765428 79.24020119 484.31983232 81.84962839 C484.32995348 82.61860956 484.34007463 83.38759073 484.35050249 84.17987436 C484.27680061 87.9166913 483.8885252 89.86354927 481.57175016 92.84022421 C477.97643166 95.69329573 476.20424127 95.75880059 471.65569353 95.7419166 C470.96130106 95.74618872 470.26690858 95.75046085 469.55147392 95.75486243 C467.23084104 95.76308114 464.91202639 95.7356296 462.59156084 95.70827097 C460.92582031 95.70686024 459.26007667 95.70765296 457.59433794 95.71048349 C453.07591045 95.71191809 448.55814661 95.6825214 444.03987336 95.6476137 C439.31668366 95.61635746 434.59347875 95.61342004 429.87020159 95.60748667 C420.92768962 95.59194607 411.98548328 95.55091467 403.0431059 95.50073922 C392.86184839 95.44485249 382.68057628 95.41736094 372.49920356 95.39226204 C351.55691835 95.33999902 330.61490826 95.2520525 309.67285967 95.14064401 C309.67065983 96.67488504 309.67065983 96.67488504 309.66841555 98.24012083 C309.63185758 123.1016102 309.57245681 147.96296446 309.48895693 172.82434171 C309.44910891 184.84701449 309.41674575 196.86962126 309.40186357 208.892353 C309.38887688 219.3685843 309.3619888 229.84467073 309.3182466 240.32082045 C309.29556455 245.87041159 309.27995302 251.41982359 309.28097582 256.9694652 C309.28171846 262.18895459 309.26392786 267.40804698 309.23169184 272.62743372 C309.22314694 274.54671095 309.22147378 276.46603247 309.22705698 278.3853206 C309.23364966 280.99904066 309.21589145 283.61147993 309.1918416 286.22507089 C309.20348223 287.37341117 309.20348223 287.37341117 309.21535802 288.54495025 C309.1318144 293.64743017 309.1318144 293.64743017 306.86410189 296.08441824 C303.61872436 297.64875986 300.28613773 298.09887665 296.75489092 298.58986276 C295.1252802 298.83894071 293.49589383 299.08948986 291.86670732 299.34132761 C291.01465715 299.47037485 290.16260698 299.59942209 289.28473711 299.73237985 C284.94738205 300.41035447 280.62928293 301.19116122 276.30957842 301.97267526 C274.98382044 302.21146654 274.98382044 302.21146654 273.63127947 302.45508188 C270.87398495 302.95267754 268.11715585 303.45279552 265.36035967 303.95314401 C263.93274813 304.21102197 263.93274813 304.21102197 262.47629595 304.47410959 C252.80899014 306.2227265 243.15103701 307.99285298 233.54004717 310.03126901 C232.85934664 310.17541742 232.17864611 310.31956583 231.47731829 310.46808237 C228.37719361 311.12856328 225.28158142 311.80527146 222.18921709 312.50123972 C221.1229207 312.7341572 220.05662432 312.96707468 218.95801592 313.20705026 C218.04930742 313.4127363 217.14059893 313.61842233 216.20435381 313.83034128 C213.42340424 314.17122149 211.3624707 313.88872242 208.67285967 313.14064401 C206.6110418 311.07882615 207.51795583 306.65836417 207.51464128 303.82019418 C207.50970331 302.93729245 207.50476533 302.05439072 207.49967772 301.14473438 C207.48422274 298.1628228 207.47592057 295.18093288 207.4675374 292.19899362 C207.45796515 290.0707924 207.44795547 287.9425931 207.43753862 285.81439584 C207.41041267 280.01713156 207.38944488 274.21985907 207.36953664 268.42256612 C207.34772435 262.37134711 207.32031247 256.32015362 207.2934804 250.26895517 C207.24348897 238.80131219 207.19857416 227.3336551 207.15545803 215.86598444 C207.09692754 200.37595794 207.03060617 184.88596496 206.96470785 169.39596838 C206.86103232 144.97754948 206.76781024 120.55910201 206.67285967 96.14064401 C174.33285967 96.14064401 141.99285967 96.14064401 108.67285967 96.14064401 C109.50565057 101.31928893 109.50565057 101.31928893 111.06470537 106.06520456 C111.48770922 107.13664964 111.48770922 107.13664964 111.91925859 108.22974008 C112.22595476 108.98795557 112.53265093 109.74617105 112.84864092 110.52736276 C113.16959734 111.33307214 113.49055376 112.13878153 113.82123613 112.96890634 C114.86903 115.59148533 115.92656372 118.2099893 116.98535967 120.82814401 C117.34733446 121.72867502 117.70930925 122.62920603 118.08225298 123.55702585 C122.88679493 135.50600561 127.86690374 147.34376601 133.17774248 159.07741159 C137.20054807 167.98917386 140.99417341 176.98319568 144.73535967 186.01564401 C146.00732052 189.08472681 147.2794203 192.15375195 148.55176592 195.22267526 C148.87951509 196.01334894 149.20726427 196.80402261 149.54494524 197.6186561 C153.71337527 207.66400417 157.94151577 217.68417043 162.17285967 227.70314401 C162.57530901 228.65638559 162.97775835 229.60962717 163.39240313 230.59175485 C168.4511126 242.56986313 173.54442672 254.53247379 178.68067217 266.47752756 C181.05980593 272.01309019 183.43113061 277.55199404 185.79804277 283.09279245 C186.39132868 284.48161048 186.98496807 285.87027756 187.57892656 287.25880808 C189.35088407 291.40358303 191.11233779 295.55253293 192.85843706 299.70827097 C193.39567231 300.98296412 193.9361925 302.25627845 194.4802022 303.52809519 C195.22012395 305.25969485 195.94686137 306.99691076 196.67285967 308.73439401 C197.08535967 309.71085886 197.49785967 310.6873237 197.92285967 311.69337839 C198.67285967 314.14064401 198.67285967 314.14064401 197.67285967 317.14064401 C182.6061242 320.16030968 167.49203962 322.66532364 152.29200029 324.91530222 C148.62061383 325.46090829 144.95148522 326.0203274 141.28223467 326.58009714 C138.93340082 326.93054185 136.58444677 327.28018214 134.23535967 327.62892526 C132.6011104 327.88033022 132.6011104 327.88033022 130.933846 328.13681406 C129.92088457 328.28414484 128.90792315 328.43147562 127.86426592 328.58327097 C126.53697466 328.78168337 126.53697466 328.78168337 125.18286943 328.9841041 C122.4212054 329.15633875 120.31414201 328.97262728 117.67285967 328.14064401 C116.10333225 325.75820251 114.94535439 323.64628327 113.78223467 321.07423776 C113.26956041 319.99353258 113.26956041 319.99353258 112.7465291 318.89099497 C109.24456036 311.42556914 106.04816132 303.83210718 102.92285967 296.20314401 C102.29134755 294.67424937 101.65941575 293.14552802 101.02710772 291.61696237 C98.89839932 286.46253035 96.78428282 281.30217687 94.67285967 276.14064401 C94.27592913 275.17046335 93.87899858 274.20028269 93.47003984 273.20070261 C89.60347774 263.74720623 85.74320172 254.29114947 81.88916826 244.83253855 C77.30028673 233.57068589 72.70120315 222.31352957 68.04785967 211.07814401 C67.57912432 209.94578317 67.11038897 208.81342233 66.62744951 207.64674753 C64.47312975 202.45132986 62.30505898 197.26219683 60.11426592 192.08205026 C54.91680051 179.76511385 50.02348019 167.36485727 45.33863115 154.84572214 C44.90365313 153.6836323 44.4686751 152.52154245 44.02051592 151.32423776 C43.63903399 150.29870798 43.25755205 149.27317819 42.86451006 148.21657175 C41.54789323 144.81807648 40.12559272 141.48300458 38.67285967 138.14064401 C38.30112627 139.30184763 37.92939287 140.46305124 37.54639482 141.65944284 C24.97141803 180.88045368 24.97141803 180.88045368 18.83081865 197.05714792 C15.99441619 204.54257825 13.25646302 212.05674917 10.57129717 219.59767526 C10.19640154 220.65039118 9.82150591 221.70310709 9.43524981 222.78772348 C8.64777298 224.99958994 7.86035995 227.21147912 7.07300615 229.42338938 C-1.09804096 252.36528623 -9.51967391 275.20186075 -18.12132978 297.98512644 C-18.53805449 299.08935449 -18.95477919 300.19358255 -19.38413191 301.33127207 C-20.19785938 303.48690999 -21.01234365 305.64226242 -21.82764387 307.797306 C-23.8075462 313.04514002 -25.75489653 318.3019915 -27.64598799 323.58253855 C-28.01234861 324.60416589 -28.37870924 325.62579324 -28.7561717 326.678379 C-29.44491828 328.60704603 -30.12869805 330.53749648 -30.8066783 332.46997446 C-31.26213781 333.74663728 -31.26213781 333.74663728 -31.72679853 335.04909128 C-32.12014135 336.16707857 -32.12014135 336.16707857 -32.52143049 337.30765146 C-33.32714033 339.14064401 -33.32714033 339.14064401 -35.32714033 341.14064401 C-45.1267456 341.94400638 -55.28207193 340.96905492 -65.07714033 340.39064401 C-65.79770613 340.34873941 -66.51827192 340.30683481 -67.26067305 340.26366037 C-78.69854017 339.58256337 -90.0728554 338.54003527 -101.45214033 337.20314401 C-102.13804243 337.12382639 -102.82394453 337.04450876 -103.53063154 336.96278757 C-108.14017286 336.42315156 -112.73450368 335.80848851 -117.32714033 335.14064401 C-118.05654829 335.03532358 -118.78595625 334.93000314 -119.53746748 334.82149118 C-121.76055759 334.49019002 -123.97721291 334.13073624 -126.19432783 333.76173776 C-126.87947462 333.66022913 -127.56462141 333.55872049 -128.27053022 333.45413584 C-132.96101377 332.62540544 -132.96101377 332.62540544 -134.8137126 330.1723823 C-135.53509266 327.31773424 -134.75614574 326.16578192 -133.38964033 323.57814401 C-130.91170227 318.61238878 -128.9488362 313.57983874 -127.07714033 308.36720651 C-123.62308269 298.87603633 -119.98350449 289.46820868 -116.26464033 280.07814401 C-115.94255598 279.26206674 -115.62047163 278.44598947 -115.28862715 277.60518259 C-111.91999689 269.07166192 -108.52733463 260.5506763 -104.97948408 252.08986276 C-104.71027647 251.44738092 -104.44106886 250.80489908 -104.16370344 250.14294809 C-103.89400236 249.49934839 -103.62430128 248.85574869 -103.34642744 248.19264597 C-95.87439196 230.35621906 -89.06682371 212.29505897 -82.31780195 194.17363352 C-76.00480501 177.22366721 -69.54643827 160.36719444 -62.72948408 143.61378855 C-60.33232191 137.67680578 -57.99693502 131.71557131 -55.65740156 125.75569528 C-51.45757151 115.0568266 -47.23108242 104.36933588 -42.95317793 93.70143503 C-40.74062255 88.18272315 -38.53402359 82.66162591 -36.32714033 77.14064401 C-35.65134932 75.45189157 -35.65134932 75.45189157 -34.96190596 73.72902292 C-30.39783847 62.30053132 -25.92836483 50.84670231 -21.70214033 39.28908151 C-21.39110365 38.43924692 -21.08006697 37.58941232 -20.75960493 36.71382517 C-19.22487702 32.51519592 -17.69873317 28.31370266 -16.18505049 24.10744089 C-7.47048859 0.03794083 -7.47048859 0.03794083 0 0 Z " fill="#FEFEFE" transform="translate(337.3271403312683,173.85935598611832)"/>
<path d="M0 0 C0 0.99 0 1.98 0 3 C-8.872505 3.15335983 -17.6647221 2.71239428 -26.51239014 2.14413452 C-114.65861849 -3.37947748 -204.14041301 10.6065313 -347.76953125 51.15234375 C-419.1953797 72.72655797 -492.22633182 92.72935453 -566.75 99.625 C-567.7653331 99.71920227 -567.7653331 99.71920227 -568.80117798 99.81530762 C-611.97278733 103.77160434 -653.99429821 102.13991235 -696.8125 95.4375 C-697.79899536 95.28393036 -698.78549072 95.13036072 -699.80187988 94.97213745 C-702.60525224 94.53142405 -705.40639412 94.0788349 -708.20703125 93.62109375 C-709.4749929 93.42114807 -709.4749929 93.42114807 -710.76856995 93.21716309 C-714.43418505 92.60331555 -716.86764441 92.08823706 -720 90 C-717.67736259 82.58698303 -714.76858695 75.46401437 -711.78747559 68.2973938 C-705.49828522 53.14819473 -699.95090863 37.84834373 -694.82519531 22.26782227 C-694 20 -694 20 -693 19 C-686.61763624 18.60330612 -680.53252028 19.78408921 -674.25 20.8125 C-663.18936696 22.53688341 -652.15072548 23.75200081 -641 24.6875 C-640.29121704 24.74789459 -639.58243408 24.80828918 -638.85217285 24.87051392 C-621.36749242 26.34548283 -603.92192623 27.1868508 -586.37304688 27.18530273 C-583.68863026 27.18744912 -581.00465494 27.20559075 -578.3203125 27.22460938 C-547.56240463 27.32745962 -516.84636155 24.71991675 -486.25 21.8125 C-485.44108433 21.73606892 -484.63216866 21.65963783 -483.79874039 21.58089066 C-421.2454603 15.66485577 -359.53769755 4.75066377 -297.9375 -7.5 C-266.61827953 -13.72371435 -235.19027827 -18.33765391 -203.44042969 -21.73571777 C-201.14551531 -21.98424166 -198.851981 -22.24268938 -196.55859375 -22.50488281 C-133.26446693 -29.66501043 -57.70675623 -30.8206539 0 0 Z " fill="#FDFDFD" transform="translate(890,494)"/>
<path d="M0 0 C1.1243042 0.04624512 2.2486084 0.09249023 3.40698242 0.14013672 C4.59783447 0.20088379 5.78868652 0.26163086 7.015625 0.32421875 C8.23032471 0.37980957 9.44502441 0.43540039 10.6965332 0.49267578 C13.11710207 0.60581509 15.53744638 0.72387936 17.95751953 0.84716797 C20.7462472 0.98588402 23.5339542 1.1019237 26.32421875 1.203125 C42.61630022 1.86183948 42.61630022 1.86183948 48.74609375 8.40234375 C52.9441838 13.33464137 54.426555 18.51123925 56.015625 24.69921875 C56.29277344 25.69888672 56.56992188 26.69855469 56.85546875 27.72851562 C58.32064072 33.09049475 59.62172644 38.48404467 60.86425781 43.90161133 C61.1284552 45.05188309 61.39265259 46.20215485 61.66485596 47.38728333 C61.96223663 48.68637886 61.96223663 48.68637886 62.265625 50.01171875 C63.36814669 50.00710979 64.47066837 50.00250082 65.60659981 49.99775219 C92.4217858 49.88680055 119.23694206 49.80461195 146.05230904 49.75265789 C159.01998167 49.72686608 171.98750276 49.6916966 184.95507812 49.63452148 C196.25638932 49.58471678 207.55759078 49.55243485 218.85900867 49.54127628 C224.84418437 49.53475263 230.82904609 49.51939937 236.81412125 49.48306847 C242.44642076 49.44915569 248.07827665 49.43865643 253.71066856 49.44618034 C255.77869641 49.4448037 257.84673895 49.43484341 259.91467857 49.41569138 C262.73762058 49.39082727 265.55888596 49.39678944 268.38186646 49.41044617 C269.20094329 49.39588196 270.02002012 49.38131775 270.86391747 49.36631221 C274.9732198 49.42007797 277.50723067 49.79991559 280.75835991 52.42429829 C283.47762468 55.2304959 284.17375971 55.98875483 284.51611328 59.80102539 C284.41626783 65.7933877 282.67073871 71.59450204 281.2578125 77.3828125 C280.93652455 78.72298745 280.61588733 80.06331855 280.29585266 81.40379333 C279.43315477 85.0073554 278.56021666 88.60836058 277.68468857 92.20882416 C276.95757868 95.20298359 276.23558304 98.19836721 275.51341534 101.19372177 C273.29516858 110.39195224 271.0559917 119.58501611 268.81108856 128.77677155 C268.27643621 130.96742158 267.74278026 133.15831158 267.20953369 135.3493042 C265.27149034 143.31169587 263.32310436 151.27137999 261.35675049 159.22683716 C260.75643205 161.6582586 260.15855449 164.09028404 259.56317139 166.5229187 C258.73666541 169.89371809 257.89930861 173.2616268 257.05859375 176.62890625 C256.8186116 177.61539658 256.57862946 178.6018869 256.33137512 179.61827087 C253.70583497 190.01726196 253.70583497 190.01726196 249.32450867 193.59825134 C244.83075646 195.67475146 240.58523124 195.56518864 235.68554688 195.66577148 C234.6292382 195.69820922 233.57292953 195.73064695 232.48461151 195.76406765 C229.07848627 195.86313777 225.67242356 195.93975693 222.265625 196.01171875 C220.62069565 196.05043028 220.62069565 196.05043028 218.9425354 196.08992386 C210.81119268 196.27957849 202.67935862 196.41706679 194.546875 196.546875 C191.98042369 196.59002721 189.41397681 196.63344356 186.84753418 196.67710876 C180.85598583 196.7784257 174.86440045 196.8771415 168.872787 196.97450298 C162.03314249 197.08579691 155.19355737 197.20055691 148.35397434 197.3155576 C134.32458584 197.55137256 120.29513084 197.78299881 106.265625 198.01171875 C109.78250968 202.44605161 113.88439561 203.88166015 119.265625 205.01171875 C123.41578739 205.40545397 127.53206859 205.40907186 131.69848633 205.38061523 C132.91257172 205.38438171 134.1266571 205.38814819 135.37753296 205.39202881 C138.00006103 205.39844035 140.62196211 205.39960671 143.24442482 205.3918438 C147.3923548 205.38018987 151.54000888 205.39247968 155.68791199 205.40846252 C165.98202909 205.44452569 176.27613789 205.45088187 186.5703125 205.44836426 C194.5890337 205.44665318 202.60752729 205.45374417 210.62618464 205.48834282 C214.74900451 205.50513035 218.8712683 205.50335024 222.99408591 205.4875201 C226.15602474 205.48036852 229.31783374 205.49895038 232.47973633 205.51342773 C233.62005814 205.50368423 234.76037994 205.49394073 235.93525696 205.48390198 C237.50164917 205.49826797 237.50164917 205.49826797 239.09968567 205.51292419 C240.45931034 205.51261027 240.45931034 205.51261027 241.84640217 205.51229 C245.03633038 206.17082457 246.24272109 207.51585909 248.265625 210.01171875 C249.16126084 214.01739716 248.83460331 217.81386968 247.078125 221.51171875 C243.10219225 224.80214586 238.19597093 224.1083922 233.265625 224.01171875 C233.61625 224.79546875 233.966875 225.57921875 234.328125 226.38671875 C235.88772001 232.41715279 235.41162088 237.76217128 232.578125 243.32421875 C227.69355456 249.0008817 223.15001942 252.62327931 215.515625 253.38671875 C208.76420869 253.20804233 201.93033666 249.80970789 197.265625 245.01171875 C193.23057235 239.30424296 192.52096509 233.88456347 193.265625 227.01171875 C193.595625 226.02171875 193.925625 225.03171875 194.265625 224.01171875 C178.095625 224.01171875 161.925625 224.01171875 145.265625 224.01171875 C145.595625 225.33171875 145.925625 226.65171875 146.265625 228.01171875 C146.96983662 235.33822815 145.59278514 240.59855055 141.390625 246.76171875 C137.00369236 251.40670625 132.34748934 253.10724621 126.078125 253.32421875 C120.05668427 253.2251819 114.94122593 251.42433326 110.4375 247.36328125 C107.54895644 244.1522304 105.49730517 241.19703971 104.265625 237.01171875 C104.39956723 234.57068987 104.5920057 232.13249025 104.828125 229.69921875 C105.03599874 225.50523938 104.94483083 222.77656874 102.03515625 219.5 C99.17749168 217.53704283 96.24799199 215.77721401 93.265625 214.01171875 C83.9735753 205.95208827 80.37558127 193.16827049 77.45706177 181.67800903 C76.86117438 179.33333776 76.24871325 176.99347922 75.63256836 174.65405273 C74.93919874 172.02030956 74.2469985 169.38630208 73.55937195 166.75105286 C70.72586541 155.89578085 67.77255787 145.07321706 64.82711792 134.24789429 C63.47709042 129.28333157 62.13116195 124.31766093 60.78504944 119.35203552 C57.65561384 107.80815425 54.51966377 96.26605307 51.37928772 84.72514343 C49.8401726 79.06885628 48.30211596 73.41228143 46.76425076 67.75565434 C45.4831656 63.04397143 44.20058482 58.33269886 42.91693306 53.62171459 C42.11739127 50.68604145 41.31923641 47.74999253 40.52145386 44.81384087 C40.14925674 43.44515489 39.77647732 42.07662711 39.40307617 40.70826912 C38.89030414 38.82888189 38.37979099 36.94887878 37.86938477 35.06884766 C37.5823317 34.01436432 37.29527863 32.95988098 36.99952698 31.8734436 C36.33015513 29.26334293 35.76449708 26.65907876 35.265625 24.01171875 C34.08532715 23.99713623 32.9050293 23.98255371 31.68896484 23.9675293 C27.29413125 23.90939178 22.89980174 23.83215994 18.50537109 23.74926758 C16.60636601 23.71609082 14.70726404 23.68803644 12.80810547 23.6652832 C10.07217265 23.63160357 7.33712189 23.57928155 4.6015625 23.5234375 C3.33558731 23.51385262 3.33558731 23.51385262 2.04403687 23.5040741 C-4.15377567 23.3507957 -8.4234549 22.14019779 -13.109375 17.82421875 C-15.24715063 14.12422248 -15.7236342 11.18859094 -14.734375 7.01171875 C-10.48769651 1.58540735 -6.78606151 -0.30959101 0 0 Z M69.265625 70.01171875 C69.58150438 71.77804309 69.89884128 73.54410681 70.21679688 75.31005859 C70.39335815 76.29356293 70.56991943 77.27706726 70.75183105 78.29037476 C71.2866933 81.12330841 71.93798713 83.87492715 72.765625 86.63671875 C73.0028125 87.45398438 73.24 88.27125 73.484375 89.11328125 C74.10142182 91.20334084 74.10142182 91.20334084 76.265625 92.01171875 C79.25532789 92.09877021 82.22147455 92.1272202 85.2109375 92.109375 C86.53845535 92.10725258 86.53845535 92.10725258 87.89279175 92.10508728 C90.72543691 92.09948015 93.55800364 92.08692646 96.390625 92.07421875 C98.30859261 92.06920467 100.22656146 92.0646416 102.14453125 92.06054688 C106.85159282 92.04950841 111.5585956 92.032239 116.265625 92.01171875 C117.32727463 87.4035801 117.03385709 83.40635569 116.390625 78.76171875 C116.29910156 78.02953125 116.20757813 77.29734375 116.11328125 76.54296875 C115.91397705 72.97535142 115.91397705 72.97535142 114.265625 70.01171875 C112.85337454 69.91884615 111.43653566 69.89425103 110.02124023 69.89819336 C108.66995277 69.89830666 108.66995277 69.89830666 107.29136658 69.89842224 C105.8226284 69.90616417 105.8226284 69.90616417 104.32421875 69.9140625 C103.32681168 69.91547745 102.3294046 69.9168924 101.30177307 69.91835022 C98.10219376 69.92396761 94.90268331 69.93652304 91.703125 69.94921875 C89.53971455 69.95423151 87.37630301 69.9587948 85.21289062 69.96289062 C79.89711175 69.97394268 74.58137329 69.99069771 69.265625 70.01171875 Z M133.265625 70.01171875 C133.925625 76.94171875 134.585625 83.87171875 135.265625 91.01171875 C139.91452626 91.78653563 143.76360328 92.12924876 148.4140625 92.109375 C149.07145416 92.10796005 149.72884583 92.1065451 150.40615845 92.10508728 C152.48436231 92.09953637 154.56245427 92.0869934 156.640625 92.07421875 C158.05859218 92.06919739 159.47656107 92.0646356 160.89453125 92.06054688 C164.35159822 92.04958312 167.80860067 92.03235296 171.265625 92.01171875 C171.77251105 89.47125417 172.27129374 86.92962999 172.765625 84.38671875 C172.90871094 83.67386719 173.05179688 82.96101562 173.19921875 82.2265625 C173.33457031 81.52402344 173.46992187 80.82148437 173.609375 80.09765625 C173.73505859 79.45876465 173.86074219 78.81987305 173.99023438 78.16162109 C174.33559696 75.46546601 174.265625 72.72990336 174.265625 70.01171875 C160.735625 70.01171875 147.205625 70.01171875 133.265625 70.01171875 Z M193.265625 70.01171875 C192.770625 72.71359375 192.275625 75.41546875 191.765625 78.19921875 C191.53069336 79.46221802 191.53069336 79.46221802 191.29101562 80.75073242 C191.16919922 81.4285376 191.04738281 82.10634277 190.921875 82.8046875 C190.73334961 83.83372192 190.73334961 83.83372192 190.54101562 84.88354492 C190.1586814 87.48050844 190.1586814 87.48050844 190.265625 92.01171875 C198.845625 92.01171875 207.425625 92.01171875 216.265625 92.01171875 C217.6074407 87.98627165 218.65600579 84.54792749 219.390625 80.44921875 C219.55820313 79.54042969 219.72578125 78.63164063 219.8984375 77.6953125 C220.37859474 74.63751119 220.37859474 74.63751119 220.265625 70.01171875 C211.355625 70.01171875 202.445625 70.01171875 193.265625 70.01171875 Z M239.265625 70.01171875 C238.79125 71.97109375 238.316875 73.93046875 237.828125 75.94921875 C237.56128906 77.05136719 237.29445313 78.15351562 237.01953125 79.2890625 C236.16980158 83.48487794 235.73838168 87.75690867 235.265625 92.01171875 C242.525625 92.01171875 249.785625 92.01171875 257.265625 92.01171875 C259.46662829 87.60971217 260.83704296 84.50458201 261.953125 79.88671875 C262.20449219 78.87351562 262.45585938 77.8603125 262.71484375 76.81640625 C263.39409054 73.83392285 263.39409054 73.83392285 263.265625 70.01171875 C255.345625 70.01171875 247.425625 70.01171875 239.265625 70.01171875 Z M81.265625 111.01171875 C82.11802686 120.71238021 82.11802686 120.71238021 86.265625 129.01171875 C88.78656576 129.10019618 91.27993393 129.12699176 93.80078125 129.109375 C94.55403183 129.10796005 95.30728241 129.1065451 96.08335876 129.10508728 C98.4983206 129.09947251 100.91319101 129.08691758 103.328125 129.07421875 C104.96158721 129.06920565 106.59505086 129.06464241 108.22851562 129.06054688 C112.2409493 129.0503475 116.25318436 129.0307752 120.265625 129.01171875 C119.935625 122.74171875 119.605625 116.47171875 119.265625 110.01171875 C114.33596072 109.98876636 109.40648177 109.9688519 104.47680664 109.95678711 C102.79971692 109.95175762 101.12263158 109.94493327 99.44555664 109.9362793 C97.035308 109.92415316 94.62511732 109.9184766 92.21484375 109.9140625 C91.46474533 109.90890121 90.71464691 109.90373993 89.94181824 109.89842224 C86.77611268 109.8980809 84.29224528 110.00284532 81.265625 111.01171875 Z M137.265625 111.01171875 C137.14539858 116.78258669 137.34866376 122.30618216 138.265625 128.01171875 C139.34670949 129.3183337 139.34670949 129.3183337 141.94946289 129.12524414 C143.70117798 129.11738892 143.70117798 129.11738892 145.48828125 129.109375 C147.37836914 129.10454102 147.37836914 129.10454102 149.30664062 129.09960938 C150.64713609 129.09125278 151.98763088 129.08278782 153.328125 129.07421875 C154.67252442 129.06920535 156.0169256 129.06464217 157.36132812 129.06054688 C160.66280441 129.04871363 163.96419303 129.03222846 167.265625 129.01171875 C167.6063732 127.15890041 167.93784283 125.3043748 168.265625 123.44921875 C168.45125 122.41667969 168.636875 121.38414062 168.828125 120.3203125 C169.2874043 116.84701278 169.33623129 113.51114291 169.265625 110.01171875 C165.0297893 109.98702554 160.79399158 109.96886204 156.55810547 109.95678711 C155.1166918 109.95175401 153.67528324 109.94492702 152.23388672 109.9362793 C150.16372415 109.92416892 148.09362899 109.91848028 146.0234375 109.9140625 C144.15389404 109.90620728 144.15389404 109.90620728 142.24658203 109.89819336 C139.33791394 109.80355288 139.33791394 109.80355288 137.265625 111.01171875 Z M187.265625 112.01171875 C186.69256116 114.75131475 186.2946936 117.3051846 186.015625 120.07421875 C185.92539063 120.81994141 185.83515625 121.56566406 185.7421875 122.33398438 C185.52963041 124.22128565 185.39154224 126.11666428 185.265625 128.01171875 C186.29277161 129.26225005 186.29277161 129.26225005 188.49047852 129.12524414 C189.44881592 129.12000732 190.40715332 129.11477051 191.39453125 129.109375 C192.42900391 129.10615234 193.46347656 129.10292969 194.52929688 129.09960938 C195.61791016 129.09123047 196.70652344 129.08285156 197.828125 129.07421875 C198.92060547 129.06970703 200.01308594 129.06519531 201.13867188 129.06054688 C203.84770995 129.04871701 206.55664099 129.03223418 209.265625 129.01171875 C212.02644337 122.64983295 212.89738501 116.91939312 213.265625 110.01171875 C209.49485611 109.95372751 205.72420166 109.91812569 201.953125 109.88671875 C200.88126953 109.86996094 199.80941406 109.85320312 198.70507812 109.8359375 C197.16303711 109.82626953 197.16303711 109.82626953 195.58984375 109.81640625 C194.64197998 109.80593262 193.69411621 109.79545898 192.7175293 109.78466797 C190.00873251 109.83948 190.00873251 109.83948 187.265625 112.01171875 Z M232.265625 110.01171875 C231.75723936 112.05131352 231.25928614 114.09351013 230.765625 116.13671875 C230.4871875 117.27367187 230.20875 118.410625 229.921875 119.58203125 C229.07769049 123.41191567 229.07769049 123.41191567 229.265625 129.01171875 C235.535625 129.01171875 241.805625 129.01171875 248.265625 129.01171875 C250.35955465 124.12588289 251.65601866 121.04080444 252.453125 116.07421875 C252.61167969 115.11644531 252.77023437 114.15867187 252.93359375 113.171875 C253.04316406 112.45902344 253.15273437 111.74617187 253.265625 111.01171875 C250.91709972 109.83745611 249.52788435 109.89663702 246.9140625 109.9140625 C245.63789062 109.91889648 245.63789062 109.91889648 244.3359375 109.92382812 C243.44648437 109.93220703 242.55703125 109.94058594 241.640625 109.94921875 C240.29484375 109.95598633 240.29484375 109.95598633 238.921875 109.96289062 C236.70305852 109.97469284 234.48437482 109.9911572 232.265625 110.01171875 Z M91.265625 147.01171875 C93.56204204 156.52544647 96.01924701 165.77172523 99.265625 175.01171875 C102.8902043 175.208039 106.51529767 175.39227853 110.140625 175.57421875 C111.68943359 175.65833008 111.68943359 175.65833008 113.26953125 175.74414062 C114.25566406 175.79248047 115.24179688 175.84082031 116.2578125 175.890625 C117.62462158 175.96132202 117.62462158 175.96132202 119.01904297 176.03344727 C121.30336923 176.17557262 121.30336923 176.17557262 123.265625 175.01171875 C123.1254252 171.65729211 122.97744072 168.303251 122.828125 164.94921875 C122.78880859 164.00626953 122.74949219 163.06332031 122.70898438 162.09179688 C122.66708984 161.16689453 122.62519531 160.24199219 122.58203125 159.2890625 C122.54537354 158.44593506 122.50871582 157.60280762 122.47094727 156.73413086 C122.22535462 153.47776517 121.72745253 150.24451144 121.265625 147.01171875 C111.365625 147.01171875 101.465625 147.01171875 91.265625 147.01171875 Z M139.265625 147.01171875 C139.389375 150.49734375 139.513125 153.98296875 139.640625 157.57421875 C139.67462402 158.65904541 139.70862305 159.74387207 139.74365234 160.86157227 C139.96227429 166.23858386 140.50817054 170.91795845 142.265625 176.01171875 C145.55727329 176.040671 148.84888899 176.05850105 152.140625 176.07421875 C153.07777344 176.08259766 154.01492188 176.09097656 154.98046875 176.09960938 C155.87636719 176.10283203 156.77226563 176.10605469 157.6953125 176.109375 C158.52272949 176.11461182 159.35014648 176.11984863 160.20263672 176.12524414 C162.32974257 176.14524013 162.32974257 176.14524013 164.265625 175.01171875 C164.74228301 171.94827578 164.74228301 171.94827578 164.890625 168.26171875 C164.96539063 167.029375 165.04015625 165.79703125 165.1171875 164.52734375 C165.30901516 158.69174446 165.265625 152.85047007 165.265625 147.01171875 C156.685625 147.01171875 148.105625 147.01171875 139.265625 147.01171875 Z M183.265625 147.01171875 C182.64280677 153.86271927 182.12422221 160.37517468 182.203125 167.19921875 C182.22375 169.77734375 182.244375 172.35546875 182.265625 175.01171875 C189.525625 175.01171875 196.785625 175.01171875 204.265625 175.01171875 C204.76958054 171.28304772 205.2689363 167.55385865 205.765625 163.82421875 C205.90871094 162.76912109 206.05179688 161.71402344 206.19921875 160.62695312 C206.33457031 159.60537109 206.46992187 158.58378906 206.609375 157.53125 C206.73505859 156.59385986 206.86074219 155.65646973 206.99023438 154.69067383 C207.35084074 151.63159934 207.35084074 151.63159934 207.265625 147.01171875 C199.345625 147.01171875 191.425625 147.01171875 183.265625 147.01171875 Z M226.265625 147.01171875 C224.87959391 151.86282756 223.83290903 156.08881011 223.140625 161.01171875 C222.88925781 162.74421875 222.88925781 162.74421875 222.6328125 164.51171875 C222.14389722 168.58548291 222.14389722 168.58548291 222.265625 175.01171875 C227.545625 175.01171875 232.825625 175.01171875 238.265625 175.01171875 C239.27315958 171.28444053 240.27189613 167.55517825 241.265625 163.82421875 C241.69488281 162.24157227 241.69488281 162.24157227 242.1328125 160.62695312 C242.40351562 159.60537109 242.67421875 158.58378906 242.953125 157.53125 C243.20449219 156.59385986 243.45585938 155.65646973 243.71484375 154.69067383 C244.43344451 151.6512897 244.43344451 151.6512897 244.265625 147.01171875 C238.325625 147.01171875 232.385625 147.01171875 226.265625 147.01171875 Z M122.578125 228.51171875 C122.145 229.00671875 121.711875 229.50171875 121.265625 230.01171875 C121.925625 231.99171875 122.585625 233.97171875 123.265625 236.01171875 C125.61096451 236.78128011 125.61096451 236.78128011 128.265625 237.01171875 C130.265625 236.01171875 130.265625 236.01171875 131.265625 234.01171875 C131.26406276 231.42054562 131.26406276 231.42054562 130.265625 229.01171875 C126.354152 226.37527794 126.354152 226.37527794 122.578125 228.51171875 Z M211.390625 229.07421875 C209.73885296 231.91893726 210.50831799 233.91364462 211.265625 237.01171875 C213.61930213 237.69954235 213.61930213 237.69954235 216.265625 238.01171875 C217.255625 237.35171875 218.245625 236.69171875 219.265625 236.01171875 C218.935625 233.70171875 218.605625 231.39171875 218.265625 229.01171875 C214.73379403 227.89432002 214.73379403 227.89432002 211.390625 229.07421875 Z " fill="#FCFCFC" transform="translate(1143.734375,444.98828125)"/>
<path d="M0 0 C0.0700415 21.05306968 0.12296433 42.10612018 0.15543652 63.15928268 C0.17091381 72.93435305 0.19201978 82.70935107 0.22631836 92.484375 C0.25619434 101.00301958 0.27556873 109.52161177 0.28226548 118.04030728 C0.2861808 122.5520509 0.2954002 127.06364463 0.31719017 131.57534027 C0.33752689 135.82046125 0.34383952 140.06537037 0.33932304 144.31053543 C0.34014951 145.86982244 0.34613197 147.42911642 0.35761642 148.98836136 C0.37251697 151.11544753 0.36896315 153.24173116 0.36076355 155.36883545 C0.36352893 156.55979198 0.36629431 157.75074852 0.36914349 158.97779465 C-0.03654932 162.29923198 -0.6407485 163.66469603 -3 166 C-5.76346136 166.92115379 -7.44662151 167.1349161 -10.29986572 167.16062927 C-11.6161068 167.17569771 -11.6161068 167.17569771 -12.9589386 167.19107056 C-13.918983 167.19690155 -14.8790274 167.20273254 -15.86816406 167.20874023 C-16.881483 167.21852402 -17.89480194 167.2283078 -18.93882751 167.23838806 C-22.29774663 167.26834257 -25.65662595 167.28972723 -29.015625 167.30859375 C-30.73602116 167.31845149 -30.73602116 167.31845149 -32.49117279 167.32850838 C-38.56164822 167.36110156 -44.63210609 167.38555308 -50.70263672 167.4050293 C-55.72731027 167.42284758 -60.75142319 167.45767737 -65.77587891 167.50756836 C-71.84185266 167.56773217 -77.90730623 167.59849997 -83.97356415 167.60820198 C-86.28444214 167.61676378 -88.59530597 167.6355995 -90.90601349 167.6649456 C-94.14271177 167.70383986 -97.37738147 167.70489678 -100.61425781 167.69702148 C-101.56620529 167.71702209 -102.51815277 167.73702271 -103.49894714 167.75762939 C-109.34390309 167.6938831 -112.45307942 166.63331375 -116.68400383 162.54198265 C-118.5090833 160.40349552 -119.54377676 158.37378282 -120.4921875 155.73046875 C-120.87818115 154.69817139 -121.2641748 153.66587402 -121.66186523 152.60229492 C-122.06219971 151.4754126 -122.46253418 150.34853027 -122.875 149.1875 C-123.81709495 146.66484468 -124.76343996 144.14412698 -125.71484375 141.625 C-125.96820999 140.94853928 -126.22157623 140.27207855 -126.48262024 139.57511902 C-129.56049401 131.40713509 -132.95651627 123.3725 -136.33221436 115.32424927 C-143.41729004 98.42222199 -150.26721453 81.44832179 -156.73242188 64.29882812 C-157.61590201 61.9996017 -158.53123791 59.71247121 -159.47070312 57.43554688 C-159.93927734 56.28634766 -160.40785156 55.13714844 -160.890625 53.953125 C-161.31891602 52.92864258 -161.74720703 51.90416016 -162.18847656 50.84863281 C-163.08148602 47.71396545 -162.73832852 46.11295933 -162 43 C-139.80511074 36.42290116 -117.60730175 29.8557252 -95.40582275 23.30090332 C-92.63257907 22.48211922 -89.85941563 21.66306473 -87.08636475 20.84362793 C-33.39613054 4.9805011 -33.39613054 4.9805011 -9 -1 C-8.12883545 -1.23871826 -7.2576709 -1.47743652 -6.36010742 -1.72338867 C-3.53751534 -2.05420452 -2.43925941 -1.33950814 0 0 Z " fill="#FEFEFE" transform="translate(646,526)"/>
<path d="M0 0 C0.82435547 -0.01611328 1.64871094 -0.03222656 2.49804688 -0.04882812 C8.52618727 -0.05364678 12.70839066 0.93341671 17.38671875 5.01171875 C33.41924884 23.35005092 45.46685944 45.4752943 57.84545898 66.33300781 C58.5368396 67.49654785 58.5368396 67.49654785 59.2421875 68.68359375 C59.64421387 69.36349365 60.04624023 70.04339355 60.46044922 70.74389648 C61.34432651 72.29477536 61.34432651 72.29477536 62.4375 73.3125 C62.87392822 72.5596875 63.31035645 71.806875 63.76000977 71.03125 C102.75348583 3.87383806 102.75348583 3.87383806 113.4375 0.3125 C120.6523387 -0.21782148 127.88136859 0.41655721 135.0625 1.125 C135.85664307 1.19501221 136.65078613 1.26502441 137.46899414 1.3371582 C139.4731302 1.55454205 141.45956405 1.92315892 143.4375 2.3125 C145.5188779 5.43456685 145.70568897 6.22971368 145.81640625 9.796875 C145.86680054 11.24574097 145.86680054 11.24574097 145.91821289 12.72387695 C145.94520264 13.82562256 145.97219238 14.92736816 146 16.0625 C146.05305298 17.88817505 146.05305298 17.88817505 146.10717773 19.75073242 C146.21024407 23.42558321 146.29588723 27.10071007 146.37890625 30.77606201 C146.44031382 33.43430629 146.50690582 36.09238729 146.57421875 38.75048828 C146.96659857 54.50736802 147.2233379 70.26511007 147.41020966 86.02568817 C147.43897308 88.43593728 147.46880412 90.84617209 147.49859619 93.25640869 C147.61809285 103.11788203 147.71184915 112.97913342 147.76413059 122.84120655 C147.78802605 127.33133557 147.81985444 131.82104682 147.87210083 136.3109436 C147.92096842 140.56799801 147.94535927 144.82451472 147.95139122 149.08183861 C147.95769784 150.66387935 147.97259398 152.24591183 147.99656105 153.82778358 C148.02807436 156.00774267 148.02836158 158.18559697 148.02099609 160.36572266 C148.02908295 161.59215485 148.0371698 162.81858704 148.04550171 164.08218384 C147.26693667 168.21870382 145.64232993 169.68046716 142.4375 172.3125 C135.82837705 175.48797704 127.42159946 174.6157091 120.4375 173.3125 C117.61138929 172.07834523 115.62704083 170.50204083 113.4375 168.3125 C113.19701005 165.47947342 113.02877353 162.67126948 112.90625 159.83203125 C112.84395203 158.4525103 112.84395203 158.4525103 112.78039551 157.04512024 C112.15803698 141.96799541 112.08873417 126.86977964 111.91143799 111.78216553 C111.85978702 107.40700334 111.80481739 103.03190618 111.74562073 98.65683937 C111.71978423 96.65437719 111.69860122 94.65185662 111.6776123 92.64933777 C111.55561095 83.50970927 111.07990207 74.42725993 110.4375 65.3125 C108.48074186 68.48302564 106.52486675 71.65409214 104.57028198 74.82595825 C103.85642208 75.9842021 103.14233085 77.14230341 102.42800903 78.30026245 C98.19451914 85.16440869 93.98692069 92.04263086 89.8359375 98.95703125 C89.08200114 100.20999179 88.32801403 101.46292179 87.57397461 102.71582031 C86.48558973 104.52460022 85.39916982 106.33439811 84.31936646 108.14831543 C72.81302833 127.47605092 72.81302833 127.47605092 67 130.5 C62.41941901 131.54469391 59.66747256 131.27925817 55.4375 129.3125 C49.13313962 124.57694931 45.35986929 117.76138984 41.44219971 111.072052 C39.61350331 107.94988104 37.75141212 104.84764773 35.89453125 101.7421875 C35.52193176 101.11685623 35.14933228 100.49152496 34.76544189 99.84724426 C29.63753869 91.26032788 24.21378878 82.85957401 18.79345703 74.45532227 C17.30142293 72.09745707 15.86473811 69.71003956 14.4375 67.3125 C14.27948606 71.56210956 14.13749944 75.81218589 14 80.0625 C13.97693787 80.75892609 13.95387573 81.45535217 13.93011475 82.17288208 C13.5625839 93.54696961 13.38182095 104.92011026 13.27586937 116.29924393 C13.25389307 118.60685264 13.22998676 120.91443311 13.20539856 123.22201538 C13.19319983 124.372329 13.19319983 124.372329 13.18075466 125.54588127 C13.16423133 127.10285441 13.14764803 128.65982691 13.13100529 130.21679878 C13.08227268 134.90691456 13.04733761 139.59691088 13.02125072 144.28720379 C13.00164601 147.26366989 12.96982357 150.23991947 12.93493462 153.21624184 C12.92110462 154.62335362 12.91254095 156.03052776 12.90944099 157.43770409 C12.90454456 159.38164676 12.87976903 161.32550902 12.85400391 163.26928711 C12.84591705 164.36808701 12.8378302 165.4668869 12.82949829 166.59898376 C12.4375 169.3125 12.4375 169.3125 11.04940796 171.14234924 C4.81701174 175.66670382 -5.23577655 174.52269163 -12.4375 173.859375 C-16.54841511 173.13996486 -18.58453761 172.20537775 -21.5625 169.3125 C-22.73212573 165.8036228 -22.70243567 162.65424582 -22.69189453 159.00463867 C-22.69361003 158.25697298 -22.69532553 157.50930729 -22.69709301 156.73898506 C-22.70143501 154.23612487 -22.69845163 151.73332995 -22.6953125 149.23046875 C-22.69654058 147.45134963 -22.69810944 145.67223072 -22.69999695 143.89311218 C-22.70390348 138.09539232 -22.69638391 132.29771233 -22.6875 126.5 C-22.68622982 125.5180088 -22.68495964 124.53601761 -22.68365097 123.5242691 C-22.66790093 111.40424697 -22.63724205 99.28432234 -22.59294605 87.16437149 C-22.5722647 81.45777105 -22.5563841 75.75119366 -22.54561996 70.04456615 C-22.52966894 61.71205294 -22.49691408 53.37999964 -22.4271965 45.04774761 C-22.39549362 41.25289739 -22.37136218 37.45841172 -22.36749268 33.66342163 C-22.36255479 29.48079974 -22.31818429 25.29952932 -22.26953125 21.1171875 C-22.27345383 19.896259 -22.2773764 18.67533051 -22.28141785 17.41740417 C-22.12119879 8.2760421 -22.12119879 8.2760421 -19.21923828 4.59692383 C-13.60562285 -0.23000133 -7.0453285 -0.02767215 0 0 Z " fill="#FDFDFD" transform="translate(745.5625,520.6875)"/>
<path d="M0 0 C1.17554443 -0.01385742 2.35108887 -0.02771484 3.56225586 -0.04199219 C19.2210452 0.04148035 32.32118823 4.39872067 43.8125 15.25390625 C55.20861599 27.34002145 57.8890872 43.79756705 58.41796875 59.8671875 C58.45488327 60.8459787 58.49179779 61.8247699 58.52983093 62.83322144 C58.91634349 73.90323275 59.06887153 84.97602488 59.10766602 96.05224609 C59.11938433 98.38303602 59.14013273 100.71379533 59.16918945 103.04443359 C59.21159916 106.46990549 59.22797153 109.89461189 59.23828125 113.3203125 C59.25578934 114.35979034 59.27329742 115.39926819 59.29133606 116.47024536 C59.27789814 120.90947683 59.26787729 123.60357864 56.97729492 127.48388672 C52.03086925 131.80496637 45.81130045 131.75840028 39.53515625 131.62890625 C34.56885363 131.16576469 30.37914351 129.99060112 26.8125 126.3125 C25.8125 124.375 25.8125 124.375 25.8125 122.375 C25.13445312 122.83390625 24.45640625 123.2928125 23.7578125 123.765625 C8.81322236 133.61829107 -5.07400413 136.20108828 -22.75 133.9140625 C-32.74584855 131.70143977 -41.86459312 126.53671143 -48.1875 118.375 C-55.6883133 106.36571913 -57.059618 92.90464903 -54.0625 79.125 C-51.0303265 68.53354745 -45.22171093 60.3945491 -35.6171875 54.90625 C-23.01463723 48.73064132 -10.20283852 49.11477042 3.5 49.25 C5.28059392 49.26005161 7.06119333 49.2691736 8.84179688 49.27734375 C13.16550259 49.29918052 17.48893926 49.33358963 21.8125 49.375 C21.23464163 47.59156084 20.63869548 45.81397544 20.03515625 44.0390625 C19.70523682 43.0485791 19.37531738 42.0580957 19.03540039 41.03759766 C17.12901418 36.88685939 14.97923632 36.04169453 10.8125 34.375 C-1.1007737 30.40390877 -17.41950801 32.47702658 -29.1015625 36.59765625 C-32.87721169 37.5487375 -35.43595766 37.39076056 -39.1875 36.375 C-40.67578125 34.5546875 -40.67578125 34.5546875 -41.5 32.25 C-41.80035156 31.43273437 -42.10070312 30.61546875 -42.41015625 29.7734375 C-42.66667969 28.98195313 -42.92320312 28.19046875 -43.1875 27.375 C-43.6 26.22 -44.0125 25.065 -44.4375 23.875 C-45.34950404 19.61898115 -45.96074858 15.6951062 -45.1875 11.375 C-39.50022849 4.11882601 -25.41471472 1.78422325 -16.75585938 0.61816406 C-11.18092951 0.09034751 -5.5962942 0.03957827 0 0 Z M-16.1875 83.375 C-18.8170788 87.52560967 -18.74212149 91.60525516 -18.1875 96.375 C-16.57089656 100.09318792 -14.71325276 102.37389708 -11.1875 104.375 C-3.65091386 106.97382281 3.62687329 107.05863713 11 103.75 C15.70260259 101.15018719 20.3823903 97.2352194 22.8125 92.375 C22.88431821 89.65739892 22.90549506 86.96640612 22.875 84.25 C22.87048828 83.49589844 22.86597656 82.74179687 22.86132812 81.96484375 C22.84953499 80.10152873 22.83159942 78.23825445 22.8125 76.375 C2.03132693 75.05582481 2.03132693 75.05582481 -16.1875 83.375 Z " fill="#FDFDFD" transform="translate(973.1875,563.625)"/>
<path d="M0 0 C8.99691579 0.15984368 17.99356951 1.77655232 26.89074707 3.04138184 C49.46510899 6.23358606 72.1294206 8.78684363 94.91796875 9.7890625 C97.70146333 9.97956783 100.28462482 10.37612849 103 11 C102.42833104 17.1365742 100.54774349 22.33590899 98.28125 28.04296875 C97.9044812 29.00664871 97.5277124 29.97032867 97.13952637 30.96321106 C96.33947647 33.00448458 95.53572219 35.0443096 94.72851562 37.08276367 C93.52313005 40.12904515 92.33090958 43.18021334 91.140625 46.23242188 C71.84771892 95.43485405 71.84771892 95.43485405 65 100 C63.06188202 100.25447559 63.06188202 100.25447559 60.82507324 100.26069641 C59.97545517 100.26778122 59.1258371 100.27486603 58.25047302 100.28216553 C57.32154739 100.27968811 56.39262177 100.27721069 55.43554688 100.2746582 C54.45481705 100.27976913 53.47408722 100.28488007 52.46363831 100.29014587 C49.21528049 100.30406915 45.96713415 100.3030832 42.71875 100.30078125 C40.46577881 100.30466633 38.21280836 100.3090006 35.95983887 100.31376648 C31.2354088 100.32123433 26.51105345 100.32093305 21.78662109 100.31567383 C15.72337953 100.3098748 9.660443 100.32681812 3.59725189 100.3500185 C-1.05578407 100.36472733 -5.70874606 100.36563149 -10.36180115 100.36250877 C-12.59777939 100.3630233 -14.83376163 100.36828552 -17.06971741 100.37832069 C-20.19186423 100.39061412 -23.31341016 100.38393628 -26.43554688 100.37231445 C-27.82893532 100.38378006 -27.82893532 100.38378006 -29.25047302 100.39547729 C-30.10009109 100.38846298 -30.94970917 100.38144867 -31.82507324 100.3742218 C-32.56322014 100.37438954 -33.30136703 100.37455729 -34.06188202 100.37473011 C-36.56530211 99.8907003 -37.47460606 99.01126674 -39 97 C-38.95261539 90.96320047 -35.69311315 85.24471313 -33.3125 79.8125 C-28.72556973 69.16810788 -24.34059771 58.45927079 -20.0625 47.6875 C-15.50221857 36.22289518 -10.89582008 24.77968576 -6.1875 13.375 C-5.92856964 12.74532318 -5.66963928 12.11564636 -5.40286255 11.46688843 C-4.68146377 9.71377788 -3.95607832 7.9623094 -3.23046875 6.2109375 C-2.82207764 5.22399902 -2.41368652 4.23706055 -1.99291992 3.22021484 C-1 1 -1 1 0 0 Z " fill="#FDFDFD" transform="translate(167,593)"/>
<path d="M0 0 C1.35834961 -0.00290039 1.35834961 -0.00290039 2.74414062 -0.00585938 C4.13729492 0.02991211 4.13729492 0.02991211 5.55859375 0.06640625 C6.95754883 0.0499707 6.95754883 0.0499707 8.38476562 0.03320312 C12.75055594 0.07987943 15.31179655 0.20587044 19.0859375 2.5390625 C22.10869433 5.84616864 22.12550534 7.76610718 22.14758301 12.16416931 C22.15592667 13.34056473 22.16427032 14.51696014 22.17286682 15.72900391 C22.17914345 17.67480347 22.17914345 17.67480347 22.18554688 19.65991211 C22.19348701 21.03463496 22.20187479 22.40935528 22.2106781 23.78407288 C22.22875344 26.74807442 22.24376253 29.71207034 22.25645447 32.67609978 C22.27664944 37.36080872 22.30430565 42.0454551 22.33312988 46.7301178 C22.39326332 56.675518 22.44508102 66.62095571 22.49609375 76.56640625 C22.55115657 87.29875334 22.60763454 98.03108148 22.67364264 108.76336771 C22.70201325 113.42232461 22.72560183 118.08127414 22.74556732 122.74027431 C22.75894546 125.63685992 22.77635855 128.53341101 22.79487801 131.42996788 C22.8063476 133.4177222 22.81289862 135.40550299 22.81932068 137.39328003 C22.82766434 138.57249527 22.836008 139.75171051 22.84460449 140.96665955 C22.85233509 142.50722723 22.85233509 142.50722723 22.86022186 144.0789175 C22.88954989 146.75144538 22.88954989 146.75144538 23.99609375 149.62890625 C26.26062183 150.58366933 26.26062183 150.58366933 28.93359375 151.19140625 C33.79725205 152.43006455 33.79725205 152.43006455 35.99609375 154.62890625 C36.25488281 157.11914062 36.25488281 157.11914062 36.26171875 160.22265625 C36.26558594 161.89134766 36.26558594 161.89134766 36.26953125 163.59375 C36.26179688 164.76035156 36.2540625 165.92695312 36.24609375 167.12890625 C36.25769531 168.87880859 36.25769531 168.87880859 36.26953125 170.6640625 C36.26695313 171.77652344 36.264375 172.88898438 36.26171875 174.03515625 C36.25946289 175.05931641 36.25720703 176.08347656 36.25488281 177.13867188 C35.99609375 179.62890625 35.99609375 179.62890625 33.99609375 181.62890625 C21.12032491 182.91837942 8.82721749 180.89109418 -1.62890625 173.12890625 C-7.35246582 167.99608104 -10.76828723 160.11883081 -12.00390625 152.62890625 C-12.09062061 150.92747889 -12.13015267 149.22321252 -12.13088989 147.51957703 C-12.13370972 146.51244659 -12.13652954 145.50531616 -12.13943481 144.46766663 C-12.13741058 143.37320724 -12.13538635 142.27874786 -12.13330078 141.15112305 C-12.1350531 139.98925476 -12.13680542 138.82738647 -12.13861084 137.63031006 C-12.14301896 133.77956659 -12.14009134 129.92886897 -12.13671875 126.078125 C-12.1369418 123.38507551 -12.13836284 120.69202684 -12.13961792 117.99897766 C-12.1414382 112.33891305 -12.13904197 106.67886146 -12.13427734 101.01879883 C-12.12888496 94.5395605 -12.13056089 88.06035388 -12.13610375 81.58111638 C-12.14069933 75.97898554 -12.14125301 70.37686406 -12.13866508 64.77473193 C-12.13713071 61.44737945 -12.13723806 58.12005314 -12.14020157 54.79269981 C-12.14523131 47.54629711 -12.11950496 40.30148269 -12.03806305 33.05550766 C-12.01503461 30.74530028 -12.00125227 28.43498457 -11.99611664 26.12466812 C-11.98381172 22.7900681 -11.93244327 19.45827049 -11.87060547 16.12426758 C-11.8737784 15.13313556 -11.87695133 14.14200354 -11.88022041 13.12083721 C-11.69974702 6.55486722 -11.69974702 6.55486722 -9.69986439 3.89360714 C-6.6099476 1.212851 -4.0694894 -0.00361375 0 0 Z " fill="#FDFDFD" transform="translate(1134.00390625,516.37109375)"/>
<path d="M0 0 C0.90685547 -0.020625 1.81371094 -0.04125 2.74804688 -0.0625 C3.62396484 -0.06765625 4.49988281 -0.0728125 5.40234375 -0.078125 C6.59911743 -0.09214355 6.59911743 -0.09214355 7.82006836 -0.10644531 C10.64583154 0.34272336 11.99209441 1.30145012 14.0625 3.25 C15.10887806 6.38913417 15.19741072 8.6033435 15.21398926 11.89878845 C15.22233292 13.07511337 15.23067657 14.25143829 15.23927307 15.46340942 C15.2455497 17.4014595 15.2455497 17.4014595 15.25195312 19.37866211 C15.25989583 20.75190993 15.26828381 22.12515524 15.27708435 23.49839783 C15.29514225 26.45637724 15.3101576 29.41435111 15.32286072 32.37235832 C15.34307924 37.04902063 15.37073233 41.72562071 15.39953613 46.40223694 C15.45963388 56.3306288 15.51146993 66.25905802 15.5625 76.1875 C15.61758438 86.90204092 15.67408374 97.61656298 15.74004889 108.3310433 C15.76839215 112.98052355 15.79199049 117.62999655 15.81197357 122.27951992 C15.82536619 125.17178337 15.84277843 128.0640125 15.86128426 130.95624733 C15.87273423 132.93783589 15.87929915 134.91945079 15.88572693 136.90106201 C15.89407059 138.08020676 15.90241425 139.2593515 15.91101074 140.47422791 C15.91874134 142.01146468 15.91874134 142.01146468 15.92662811 143.57975674 C16.04778841 145.96087826 16.3814192 147.97430482 17.0625 150.25 C18.11050781 150.39695312 18.11050781 150.39695312 19.1796875 150.546875 C20.08976562 150.69640625 20.99984375 150.8459375 21.9375 151 C22.84242187 151.13921875 23.74734375 151.2784375 24.6796875 151.421875 C27.0625 152.25 27.0625 152.25 28.20849609 153.96728516 C29.22884039 156.69462054 29.23323676 158.69584628 29.109375 161.6015625 C29.06683594 162.61734375 29.02429687 163.633125 28.98046875 164.6796875 C28.92503906 165.73414063 28.86960937 166.78859375 28.8125 167.875 C28.77253906 168.9371875 28.73257812 169.999375 28.69140625 171.09375 C28.3195615 178.9929385 28.3195615 178.9929385 26.0625 181.25 C14.7246415 182.57074902 2.28964667 180.91297926 -7.00390625 173.97265625 C-14.04416685 167.70042408 -17.40919977 160.37699705 -18.21824646 150.99402428 C-18.34044881 147.19711608 -18.36659011 143.40637237 -18.35742188 139.6081543 C-18.36477547 138.15667575 -18.37336542 136.70520302 -18.38308716 135.2537384 C-18.40516161 131.34084396 -18.40824146 127.42816092 -18.40633965 123.51521277 C-18.40621944 120.24198619 -18.41480288 116.96880361 -18.42311716 113.69558936 C-18.44229559 105.97630989 -18.44525333 98.25713856 -18.43847656 90.5378418 C-18.43181977 82.58048198 -18.45477824 74.62358381 -18.49179029 66.66631764 C-18.52247174 59.8210568 -18.53384964 52.97594473 -18.52995348 46.13061649 C-18.52788661 42.04760046 -18.53335729 37.96494494 -18.55784607 33.88199425 C-18.58008904 30.04775179 -18.57825683 26.21426397 -18.55791855 22.38001823 C-18.55450554 20.97434148 -18.55961036 19.56861407 -18.57390213 18.16300583 C-18.68698781 6.21644551 -18.68698781 6.21644551 -15.58654785 2.93782043 C-10.49243686 -0.30785315 -5.84299051 0.03308133 0 0 Z " fill="#FDFDFD" transform="translate(1076.9375,516.75)"/>
<path d="M0 0 C0.99 0.33 1.98 0.66 3 1 C1.576875 1.928125 1.576875 1.928125 0.125 2.875 C-2.94445109 4.81970969 -2.94445109 4.81970969 -5 7 C-5.02168637 9.90675183 -5.02168637 9.90675183 -4.625 13.125 C-4.51414062 14.22070312 -4.40328125 15.31640625 -4.2890625 16.4453125 C-4.19367187 17.28835938 -4.09828125 18.13140625 -4 19 C-6.86631146 16.13368854 -7.20371809 13.46904512 -7.375 9.5625 C-7.35097107 5.8680519 -7.29721347 5.31285628 -4.625 2.5 C-3.10342264 1.63052723 -1.56746434 0.78373217 0 0 Z " fill="#ECECEC" transform="translate(935,570)"/>
</svg>
